Coordinates
version=1
nRows=24
nColumns=22
inDegrees=yes

Units are S.I. units (second, meters, Newtons, ...)
If the header above contains a line with 'inDegrees', this indicates whether rotational values are in degrees (yes) or radians (no).

endheader
time	pelvis_tilt	pelvis_list	pelvis_rotation	pelvis_tx	pelvis_ty	pelvis_tz	hip_flexion_r	hip_adduction_r	hip_rotation_r	knee_angle_r	ankle_angle_r	subtalar_angle_r	hip_flexion_l	hip_adduction_l	hip_rotation_l	knee_angle_l	ankle_angle_l	subtalar_angle_l	lumbar_extension	lumbar_bending	lumbar_rotation
      2.11000000	      1.85484919	      0.68037640	     60.00186534	     -0.36979728	      0.99656390	      0.15070603	     25.34780060	     -0.44859214	      2.87748393	    -14.11834948	      6.23094608	      8.84169669	     -5.59105013	      4.19052202	      3.16486540	    -16.62538984	     19.80439804	     -7.49617136	    -15.50143836	      1.00537210	     -2.79599245
      2.12000000	      1.76470208	      0.70965307	     60.54615800	     -0.36520731	      0.99540170	      0.14444484	     25.37499739	     -0.45848988	      3.12531199	    -13.16146313	      6.05147369	      8.94471201	     -6.02648390	      4.13747323	      3.48367506	    -16.67134281	     20.04674941	     -7.45479290	    -15.44196515	      0.96023086	     -2.91387754
      2.13000000	      1.74168305	      0.79510762	     61.11163543	     -0.36057146	      0.99436789	      0.13801078	     25.26524986	     -0.44465617	      3.43585165	    -12.32249555	      5.97216684	      9.08381433	     -6.54852368	      4.03798973	      3.79011477	    -16.73905518	     20.24539742	     -7.39073051	    -15.46668898	      0.96425147	     -3.05813197
      2.14000000	      1.66768400	      0.84843862	     61.65905466	     -0.35585804	      0.99322744	      0.13151184	     25.21259177	     -0.44477243	      3.85288106	    -11.67699790	      5.84005264	      9.17696646	     -7.00657232	      3.96555468	      4.11414359	    -16.83170216	     20.46425789	     -7.33188407	    -15.42178149	      0.92934274	     -3.16594303
      2.15000000	      1.67411506	      0.96958392	     62.21256701	     -0.35105913	      0.99226092	      0.12483131	     25.01292971	     -0.40542950	      4.29485858	    -11.18640508	      5.77540223	      9.31199788	     -7.57310653	      3.83679307	      4.42386989	    -16.93951192	     20.61916219	     -7.22076160	    -15.47467606	      0.94937554	     -3.27606779
      2.16000000	      1.65648817	      1.07200351	     62.75509664	     -0.34617624	      0.99125544	      0.11804497	     24.83889817	     -0.36582351	      4.76494605	    -10.90180102	      5.62971971	      9.40626859	     -8.09943947	      3.71388898	      4.75354667	    -17.08119517	     20.76649803	     -7.09653189	    -15.48113484	      0.95529010	     -3.35580078
      2.17000000	      1.65464782	      1.17847784	     63.29183083	     -0.34121045	      0.99028614	      0.11112641	     24.64359683	     -0.30377048	      5.22347635	    -10.81918106	      5.40067249	      9.47197914	     -8.62915660	      3.56843765	      5.09195511	    -17.25366215	     20.89519811	     -6.93846914	    -15.48463067	      0.98046099	     -3.42134885
      2.18000000	      1.64277931	      1.25160370	     63.82644910	     -0.33618491	      0.98928779	      0.10408882	     24.48830087	     -0.22724014	      5.64452302	    -10.94533271	      5.00846804	      9.50136414	     -9.10459664	      3.40872002	      5.44325211	    -17.46986920	     20.99690683	     -6.78609228	    -15.43161306	      1.02005206	     -3.48552576
      2.19000000	      1.61437051	      1.28765014	     64.35712719	     -0.33107606	      0.98824338	      0.09695968	     24.36474976	     -0.13817925	      6.08389337	    -11.23437663	      4.50640179	      9.51781775	     -9.50555664	      3.24192953	      5.82284065	    -17.75654874	     21.11112678	     -6.67425531	    -15.31724721	      1.05739801	     -3.51744330
      2.20000000	      1.70825896	      1.37774428	     64.91486428	     -0.32593776	      0.98744719	      0.08963387	     24.11012112	      0.02719165	      6.34916093	    -11.65102341	      3.74272858	      9.42983395	    -10.00542462	      2.96585546	      6.19037618	    -18.07336102	     21.15730506	     -6.28702962	    -15.30421888	      1.21698022	     -3.57672497
      2.21000000	      1.72898807	      1.36084374	     65.45082657	     -0.32073662	      0.98649528	      0.08225900	     24.01186055	      0.18645031	      6.66749432	    -12.20738770	      2.76641611	      9.42861525	    -10.32567866	      2.71778455	      6.58741972	    -18.47189979	     21.14795920	     -6.12467204	    -15.12679971	      1.35024316	     -3.61915747
      2.22000000	      1.79860415	      1.33093921	     65.98656360	     -0.31553460	      0.98562933	      0.07476773	     23.92503341	      0.38877694	      6.86058937	    -12.88166034	      1.62146276	      9.30724364	    -10.60572599	      2.41802835	      6.96569277	    -18.96785573	     21.16408629	     -5.73132453	    -14.94976460	      1.55628871	     -3.62919006
      2.23000000	      1.86498334	      1.26967548	     66.47596034	     -0.31025680	      0.98483935	      0.06720182	     23.88563880	      0.61180654	      7.08307687	    -13.62359600	      0.34688211	      9.31674969	    -10.83740436	      2.12420474	      7.35737159	    -19.49760506	     21.04393962	     -5.55260698	    -14.72594172	      1.77298855	     -3.62465463
      2.24000000	      1.97734575	      1.15076720	     66.94644698	     -0.30497916	      0.98409228	      0.05957967	     23.93798675	      0.89100110	      7.13349263	    -14.48455763	     -0.91358013	      9.15220972	    -10.94718671	      1.77188758	      7.68323334	    -20.18738881	     20.95744812	     -5.10183348	    -14.45908793	      2.07441274	     -3.55876061
      2.25000000	      2.12587165	      1.04123581	     67.34930607	     -0.29965637	      0.98355711	      0.05186738	     23.98017404	      1.20408537	      7.16387430	    -15.38147584	     -2.07638291	      9.04126563	    -11.06007286	      1.41831166	      7.98544987	    -20.92156299	     20.72324684	     -4.83692931	    -14.20982042	      2.41609448	     -3.45362937
      2.26000000	      2.29617874	      0.90343424	     67.68423539	     -0.29426137	      0.98313116	      0.04412559	     24.11249960	      1.55559735	      7.05140739	    -16.41576706	     -3.01889541	      8.67378704	    -11.09914739	      1.05140784	      8.17720611	    -21.75514715	     20.42499892	     -4.40647007	    -13.93926451	      2.78919679	     -3.30615301
      2.27000000	      2.51558726	      0.78639364	     67.95842324	     -0.28885550	      0.98295161	      0.03634813	     24.21016032	      1.94743308	      6.89073521	    -17.47472586	     -3.70039695	      8.18936378	    -11.12341652	      0.67397934	      8.30853727	    -22.68916570	     19.97900900	     -4.04119236	    -13.71860837	      3.21287347	     -3.10317064
      2.28000000	      2.77848251	      0.68299165	     68.17109656	     -0.28341271	      0.98298124	      0.02855335	     24.29085529	      2.38140646	      6.65149718	    -18.57707819	     -4.08236611	      7.57473581	    -11.11821668	      0.28104882	      8.33990310	    -23.72869108	     19.44316685	     -3.70539985	    -13.53844860	      3.67482570	     -2.85130761
      2.29000000	      3.06763673	      0.59984115	     68.33683315	     -0.27794668	      0.98323356	      0.02076545	     24.31696421	      2.84248370	      6.40399739	    -19.65806067	     -4.15682655	      6.84929223	    -11.07019886	     -0.11304141	      8.27761213	    -24.88808939	     18.74352751	     -3.38291088	    -13.39937998	      4.15287914	     -2.57817505
      2.30000000	      3.37722653	      0.53569369	     68.46868171	     -0.27246540	      0.98367934	      0.01301732	     24.28611234	      3.32425736	      6.14156692	    -20.70305790	     -3.98916665	      6.10656175	    -10.96366659	     -0.51379217	      8.10031321	    -26.17956118	     17.93164577	     -3.10068853	    -13.30101944	      4.63623602	     -2.28895286
      2.31000000	      3.67526917	      0.48994284	     68.59099360	     -0.26699696	      0.98431405	      0.00530791	     24.17703477	      3.79355661	      5.91348095	    -21.65260437	     -3.58448277	      5.33744524	    -10.78479658	     -0.89514395	      7.85415375	    -27.59199068	     16.92984875	     -2.82775504	    -13.22407797	      5.08962095	     -2.00996966
      2.32000000	      3.97276203	      0.45222899	     68.72559461	     -0.26156954	      0.98509219	     -0.00231103	     23.99209957	      4.25541394	      5.69419241	    -22.48637884	     -3.05501130	      4.68486543	    -10.49579827	     -1.29450601	      7.47732336	    -29.16767439	     15.82664594	     -2.62187697	    -13.16707464	      5.52849239	     -1.76836846
      2.33000000	      4.23767867	      0.41782991	     68.89758290	     -0.25622125	      0.98599700	     -0.00984787	     23.73648029	      4.67046583	      5.47059540	    -23.17846520	     -2.43616989	      4.06058535	    -10.08960681	     -1.68687997	      7.03733467	    -30.87427212	     14.55924490	     -2.43077239	    -13.10329898	      5.91948310	     -1.57220050
      2.34000000	      4.47676688	      0.38195118	     69.13045101	     -0.25100849	      0.98701212	     -0.01729001	     23.40653657	      5.03575155	      5.22506702	    -23.70992791	     -1.77937425	      3.52678398	     -9.55213498	     -2.09462636	      6.52831412	    -32.71736630	     13.16674109	     -2.28426490	    -13.03046407	      6.27586762	     -1.43098413
